<mxfile host="app.diagrams.net" modified="2021-06-25T10:20:52.754Z" agent="5.0 (Windows NT 10.0; Win64; x64) AppleWebKit/537.36 (KHTML, like Gecko) Chrome/90.0.4430.212 Safari/537.36" etag="NgEKINeUdABpyv5dzaFj" version="14.8.1" type="github">
  <diagram id="liWqPjadGACk9InY0nwg" name="Page-1">
    <mxGraphModel dx="1038" dy="560" grid="1" gridSize="10" guides="1" tooltips="1" connect="1" arrows="1" fold="1" page="1" pageScale="1" pageWidth="850" pageHeight="1100" math="0" shadow="0">
      <root>
        <mxCell id="0" />
        <mxCell id="1" parent="0" />
        <mxCell id="PlkS5nGtUPkKeTL2JHn4-42" value="" style="edgeStyle=orthogonalEdgeStyle;rounded=0;orthogonalLoop=1;jettySize=auto;html=1;endArrow=blockThin;endFill=1;" edge="1" parent="1" source="PlkS5nGtUPkKeTL2JHn4-5" target="PlkS5nGtUPkKeTL2JHn4-6">
          <mxGeometry relative="1" as="geometry" />
        </mxCell>
        <mxCell id="PlkS5nGtUPkKeTL2JHn4-5" value="CLASSIFIER MODEL" style="rounded=1;whiteSpace=wrap;html=1;" vertex="1" parent="1">
          <mxGeometry x="70" y="180" width="120" height="60" as="geometry" />
        </mxCell>
        <mxCell id="PlkS5nGtUPkKeTL2JHn4-43" value="" style="edgeStyle=orthogonalEdgeStyle;rounded=0;orthogonalLoop=1;jettySize=auto;html=1;endArrow=blockThin;endFill=1;" edge="1" parent="1" source="PlkS5nGtUPkKeTL2JHn4-6" target="PlkS5nGtUPkKeTL2JHn4-5">
          <mxGeometry relative="1" as="geometry" />
        </mxCell>
        <mxCell id="PlkS5nGtUPkKeTL2JHn4-6" value="SERVER" style="rounded=0;whiteSpace=wrap;html=1;" vertex="1" parent="1">
          <mxGeometry x="290" y="180" width="120" height="60" as="geometry" />
        </mxCell>
        <mxCell id="PlkS5nGtUPkKeTL2JHn4-36" style="edgeStyle=orthogonalEdgeStyle;rounded=0;orthogonalLoop=1;jettySize=auto;html=1;entryX=1;entryY=0.5;entryDx=0;entryDy=0;endArrow=blockThin;endFill=1;" edge="1" parent="1" source="PlkS5nGtUPkKeTL2JHn4-9" target="PlkS5nGtUPkKeTL2JHn4-14">
          <mxGeometry relative="1" as="geometry" />
        </mxCell>
        <mxCell id="PlkS5nGtUPkKeTL2JHn4-9" value="END-USER" style="shape=process;whiteSpace=wrap;html=1;backgroundOutline=1;" vertex="1" parent="1">
          <mxGeometry x="640" y="180" width="120" height="60" as="geometry" />
        </mxCell>
        <mxCell id="PlkS5nGtUPkKeTL2JHn4-14" value="FRONT-END" style="swimlane;startSize=10;" vertex="1" parent="1">
          <mxGeometry x="480" y="300" width="110" height="120" as="geometry" />
        </mxCell>
        <mxCell id="PlkS5nGtUPkKeTL2JHn4-18" value="" style="endArrow=classic;startArrow=classic;html=1;exitX=0.75;exitY=1;exitDx=0;exitDy=0;" edge="1" parent="1" source="PlkS5nGtUPkKeTL2JHn4-6">
          <mxGeometry width="50" height="50" relative="1" as="geometry">
            <mxPoint x="400" y="310" as="sourcePoint" />
            <mxPoint x="480" y="370" as="targetPoint" />
            <Array as="points">
              <mxPoint x="380" y="340" />
              <mxPoint x="380" y="370" />
            </Array>
          </mxGeometry>
        </mxCell>
        <mxCell id="PlkS5nGtUPkKeTL2JHn4-24" value="AJAX REQUEST" style="text;html=1;strokeColor=none;fillColor=none;align=center;verticalAlign=middle;whiteSpace=wrap;rounded=0;" vertex="1" parent="1">
          <mxGeometry x="330" y="360" width="40" height="20" as="geometry" />
        </mxCell>
        <mxCell id="PlkS5nGtUPkKeTL2JHn4-26" value="SERVER-RESPONSE" style="text;html=1;strokeColor=none;fillColor=none;align=center;verticalAlign=middle;whiteSpace=wrap;rounded=0;" vertex="1" parent="1">
          <mxGeometry x="405" y="280" width="40" height="20" as="geometry" />
        </mxCell>
        <mxCell id="PlkS5nGtUPkKeTL2JHn4-29" value="" style="endArrow=classic;startArrow=classic;html=1;exitX=1;exitY=0;exitDx=0;exitDy=0;entryX=0;entryY=0;entryDx=0;entryDy=0;" edge="1" parent="1" source="PlkS5nGtUPkKeTL2JHn4-6" target="PlkS5nGtUPkKeTL2JHn4-9">
          <mxGeometry width="50" height="50" relative="1" as="geometry">
            <mxPoint x="400" y="290" as="sourcePoint" />
            <mxPoint x="450" y="240" as="targetPoint" />
            <Array as="points">
              <mxPoint x="410" y="140" />
              <mxPoint x="640" y="140" />
            </Array>
          </mxGeometry>
        </mxCell>
        <mxCell id="PlkS5nGtUPkKeTL2JHn4-31" value="API REQUEST" style="text;html=1;strokeColor=none;fillColor=none;align=center;verticalAlign=middle;whiteSpace=wrap;rounded=0;" vertex="1" parent="1">
          <mxGeometry x="480" y="150" width="40" height="20" as="geometry" />
        </mxCell>
        <mxCell id="PlkS5nGtUPkKeTL2JHn4-34" value="SERVER RESPONSE" style="text;html=1;strokeColor=none;fillColor=none;align=center;verticalAlign=middle;whiteSpace=wrap;rounded=0;" vertex="1" parent="1">
          <mxGeometry x="480" y="100" width="40" height="20" as="geometry" />
        </mxCell>
      </root>
    </mxGraphModel>
  </diagram>
</mxfile>
